<svg width="857" height="1004" viewBox="0 0 857 1004" fill="none" xmlns="http://www.w3.org/2000/svg">
<path d="M464.168 129.5L586.742 192L757.241 704.733L464.168 853.5L177.492 704.733L336.242 191L464.168 129.5Z" fill="url(#paint0_linear_1_949)" fill-opacity="0.7"/>
<g filter="url(#filter0_d_1_949)">
<path d="M455.14 567.247C459.476 565.192 464.507 565.192 468.844 567.247L730.677 691.332C742.74 697.049 742.91 714.154 730.963 720.11L469.13 850.634C464.635 852.875 459.348 852.875 454.853 850.634L193.02 720.11C181.073 714.154 181.243 697.049 193.307 691.332L455.14 567.247Z" fill="url(#paint1_linear_1_949)"/>
<path d="M455.14 567.247C459.476 565.192 464.507 565.192 468.844 567.247L730.677 691.332C742.74 697.049 742.91 714.154 730.963 720.11L469.13 850.634C464.635 852.875 459.348 852.875 454.853 850.634L193.02 720.11C181.073 714.154 181.243 697.049 193.307 691.332L455.14 567.247Z" stroke="url(#paint2_linear_1_949)" stroke-width="11"/>
</g>
<g filter="url(#filter1_d_1_949)">
<path d="M456.14 125.747C460.477 123.692 465.507 123.692 469.844 125.747L582.464 179.119C594.527 184.835 594.697 201.941 582.75 207.896L470.13 264.038C465.635 266.279 460.348 266.279 455.853 264.038L343.234 207.896C331.286 201.941 331.456 184.835 343.52 179.119L456.14 125.747Z" fill="url(#paint3_linear_1_949)" shape-rendering="crispEdges"/>
<path d="M456.14 125.747C460.477 123.692 465.507 123.692 469.844 125.747L582.464 179.119C594.527 184.835 594.697 201.941 582.75 207.896L470.13 264.038C465.635 266.279 460.348 266.279 455.853 264.038L343.234 207.896C331.286 201.941 331.456 184.835 343.52 179.119L456.14 125.747Z" stroke="url(#paint4_linear_1_949)" stroke-opacity="0.5" stroke-width="10" shape-rendering="crispEdges"/>
</g>
<path d="M334.592 414.528L328.96 399.136C328.682 398.453 328.394 397.643 328.096 396.704C327.797 395.765 327.498 394.752 327.2 393.664C326.922 394.752 326.634 395.776 326.336 396.736C326.037 397.675 325.749 398.496 325.472 399.2L319.872 414.528H334.592ZM349.792 432H343.136C342.389 432 341.781 431.819 341.312 431.456C340.842 431.072 340.49 430.603 340.256 430.048L336.8 420.608H317.632L314.176 430.048C314.005 430.539 313.674 430.987 313.184 431.392C312.693 431.797 312.085 432 311.36 432H304.64L322.848 385.728H331.616L349.792 432ZM368.565 407.744C370.186 407.744 371.594 407.541 372.789 407.136C374.005 406.731 374.997 406.176 375.765 405.472C376.554 404.747 377.141 403.893 377.525 402.912C377.909 401.931 378.101 400.853 378.101 399.68C378.101 397.333 377.322 395.531 375.765 394.272C374.229 393.013 371.872 392.384 368.693 392.384H363.189V407.744H368.565ZM390.709 432H382.933C381.461 432 380.394 431.424 379.733 430.272L370.005 415.456C369.642 414.901 369.237 414.507 368.789 414.272C368.362 414.037 367.722 413.92 366.869 413.92H363.189V432H354.581V385.728H368.693C371.829 385.728 374.517 386.059 376.757 386.72C379.018 387.36 380.864 388.267 382.293 389.44C383.744 390.613 384.81 392.021 385.493 393.664C386.176 395.285 386.517 397.077 386.517 399.04C386.517 400.597 386.282 402.069 385.813 403.456C385.365 404.843 384.704 406.101 383.829 407.232C382.976 408.363 381.909 409.355 380.629 410.208C379.37 411.061 377.93 411.733 376.309 412.224C376.864 412.544 377.376 412.928 377.845 413.376C378.314 413.803 378.741 414.315 379.125 414.912L390.709 432ZM426.839 392.8H412.887V432H404.279V392.8H390.327V385.728H426.839V392.8ZM441.534 432H432.894V385.728H441.534V432ZM460.534 392.576V406.272H477.878V413.152H460.534V432H451.894V385.728H481.078V392.576H460.534ZM496.784 432H488.144V385.728H496.784V432ZM538.92 421.088C539.389 421.088 539.805 421.269 540.168 421.632L543.56 425.312C541.682 427.637 539.368 429.419 536.616 430.656C533.885 431.893 530.6 432.512 526.76 432.512C523.325 432.512 520.232 431.925 517.48 430.752C514.749 429.579 512.413 427.947 510.472 425.856C508.53 423.765 507.037 421.269 505.992 418.368C504.968 415.467 504.456 412.299 504.456 408.864C504.456 405.387 505.01 402.208 506.12 399.328C507.229 396.427 508.786 393.931 510.792 391.84C512.818 389.749 515.229 388.128 518.024 386.976C520.818 385.803 523.912 385.216 527.304 385.216C530.674 385.216 533.661 385.771 536.264 386.88C538.888 387.989 541.117 389.44 542.952 391.232L540.072 395.232C539.901 395.488 539.677 395.712 539.4 395.904C539.144 396.096 538.781 396.192 538.312 396.192C537.992 396.192 537.661 396.107 537.32 395.936C536.978 395.744 536.605 395.52 536.2 395.264C535.794 394.987 535.325 394.688 534.792 394.368C534.258 394.048 533.64 393.76 532.936 393.504C532.232 393.227 531.41 393.003 530.472 392.832C529.554 392.64 528.488 392.544 527.272 392.544C525.202 392.544 523.304 392.917 521.576 393.664C519.869 394.389 518.397 395.456 517.16 396.864C515.922 398.251 514.962 399.957 514.28 401.984C513.597 403.989 513.256 406.283 513.256 408.864C513.256 411.467 513.618 413.781 514.344 415.808C515.09 417.835 516.093 419.541 517.352 420.928C518.61 422.315 520.093 423.381 521.8 424.128C523.506 424.853 525.341 425.216 527.304 425.216C528.477 425.216 529.533 425.152 530.472 425.024C531.432 424.896 532.306 424.693 533.096 424.416C533.906 424.139 534.664 423.787 535.368 423.36C536.093 422.912 536.808 422.368 537.512 421.728C537.725 421.536 537.949 421.387 538.184 421.28C538.418 421.152 538.664 421.088 538.92 421.088ZM573.904 414.528L568.272 399.136C567.995 398.453 567.707 397.643 567.408 396.704C567.109 395.765 566.811 394.752 566.512 393.664C566.235 394.752 565.947 395.776 565.648 396.736C565.349 397.675 565.061 398.496 564.784 399.2L559.184 414.528H573.904ZM589.104 432H582.448C581.701 432 581.093 431.819 580.624 431.456C580.155 431.072 579.803 430.603 579.568 430.048L576.112 420.608H556.944L553.488 430.048C553.317 430.539 552.987 430.987 552.496 431.392C552.005 431.797 551.397 432 550.672 432H543.952L562.16 385.728H570.928L589.104 432ZM620.998 424.896V432H593.894V385.728H602.502V424.896H620.998ZM256.94 502H248.3V455.728H256.94V502ZM306.308 455.728V502H301.892C301.209 502 300.633 501.893 300.164 501.68C299.716 501.445 299.278 501.061 298.852 500.528L274.692 469.68C274.82 471.088 274.884 472.389 274.884 473.584V502H267.3V455.728H271.812C272.174 455.728 272.484 455.749 272.74 455.792C273.017 455.813 273.252 455.877 273.444 455.984C273.657 456.069 273.86 456.208 274.052 456.4C274.244 456.571 274.457 456.805 274.692 457.104L298.948 488.08C298.884 487.333 298.83 486.597 298.788 485.872C298.745 485.147 298.724 484.475 298.724 483.856V455.728H306.308ZM348.932 462.8H334.98V502H326.372V462.8H312.42V455.728H348.932V462.8ZM363.627 462.576V475.408H379.819V482.032H363.627V495.12H384.171V502H354.987V455.728H384.171V462.576H363.627ZM418.904 494.896V502H391.8V455.728H400.408V494.896H418.904ZM452.154 494.896V502H425.05V455.728H433.658V494.896H452.154ZM466.94 502H458.3V455.728H466.94V502ZM515.444 478.8V497.52C513.097 499.248 510.59 500.517 507.924 501.328C505.278 502.117 502.441 502.512 499.412 502.512C495.636 502.512 492.212 501.925 489.14 500.752C486.089 499.579 483.476 497.947 481.3 495.856C479.145 493.765 477.481 491.269 476.308 488.368C475.134 485.467 474.548 482.299 474.548 478.864C474.548 475.387 475.113 472.197 476.244 469.296C477.374 466.395 478.974 463.899 481.044 461.808C483.134 459.717 485.662 458.096 488.628 456.944C491.593 455.792 494.921 455.216 498.612 455.216C500.489 455.216 502.238 455.365 503.86 455.664C505.502 455.963 507.017 456.379 508.404 456.912C509.812 457.424 511.092 458.053 512.244 458.8C513.396 459.547 514.452 460.368 515.412 461.264L512.948 465.168C512.564 465.787 512.062 466.171 511.444 466.32C510.825 466.448 510.153 466.288 509.428 465.84C508.724 465.435 508.02 465.029 507.316 464.624C506.612 464.219 505.822 463.867 504.948 463.568C504.094 463.269 503.124 463.024 502.036 462.832C500.969 462.64 499.732 462.544 498.324 462.544C496.041 462.544 493.972 462.928 492.116 463.696C490.281 464.464 488.713 465.563 487.412 466.992C486.11 468.421 485.108 470.139 484.404 472.144C483.7 474.149 483.348 476.389 483.348 478.864C483.348 481.509 483.721 483.877 484.468 485.968C485.236 488.037 486.302 489.797 487.668 491.248C489.054 492.677 490.718 493.776 492.66 494.544C494.601 495.291 496.766 495.664 499.156 495.664C500.862 495.664 502.388 495.483 503.732 495.12C505.076 494.757 506.388 494.267 507.668 493.648V485.264H501.844C501.289 485.264 500.852 485.115 500.532 484.816C500.233 484.496 500.084 484.112 500.084 483.664V478.8H515.444ZM532.377 462.576V475.408H548.569V482.032H532.377V495.12H552.921V502H523.737V455.728H552.921V462.576H532.377ZM599.558 455.728V502H595.142C594.459 502 593.883 501.893 593.414 501.68C592.966 501.445 592.528 501.061 592.102 500.528L567.942 469.68C568.07 471.088 568.134 472.389 568.134 473.584V502H560.55V455.728H565.062C565.424 455.728 565.734 455.749 565.99 455.792C566.267 455.813 566.502 455.877 566.694 455.984C566.907 456.069 567.11 456.208 567.302 456.4C567.494 456.571 567.707 456.805 567.942 457.104L592.198 488.08C592.134 487.333 592.08 486.597 592.038 485.872C591.995 485.147 591.974 484.475 591.974 483.856V455.728H599.558ZM641.638 491.088C642.108 491.088 642.524 491.269 642.886 491.632L646.278 495.312C644.401 497.637 642.086 499.419 639.334 500.656C636.604 501.893 633.318 502.512 629.478 502.512C626.044 502.512 622.95 501.925 620.198 500.752C617.468 499.579 615.132 497.947 613.19 495.856C611.249 493.765 609.756 491.269 608.71 488.368C607.686 485.467 607.174 482.299 607.174 478.864C607.174 475.387 607.729 472.208 608.838 469.328C609.948 466.427 611.505 463.931 613.51 461.84C615.537 459.749 617.948 458.128 620.742 456.976C623.537 455.803 626.63 455.216 630.022 455.216C633.393 455.216 636.38 455.771 638.982 456.88C641.606 457.989 643.836 459.44 645.67 461.232L642.79 465.232C642.62 465.488 642.396 465.712 642.118 465.904C641.862 466.096 641.5 466.192 641.03 466.192C640.71 466.192 640.38 466.107 640.038 465.936C639.697 465.744 639.324 465.52 638.918 465.264C638.513 464.987 638.044 464.688 637.51 464.368C636.977 464.048 636.358 463.76 635.654 463.504C634.95 463.227 634.129 463.003 633.19 462.832C632.273 462.64 631.206 462.544 629.99 462.544C627.921 462.544 626.022 462.917 624.294 463.664C622.588 464.389 621.116 465.456 619.878 466.864C618.641 468.251 617.681 469.957 616.998 471.984C616.316 473.989 615.974 476.283 615.974 478.864C615.974 481.467 616.337 483.781 617.062 485.808C617.809 487.835 618.812 489.541 620.07 490.928C621.329 492.315 622.812 493.381 624.518 494.128C626.225 494.853 628.06 495.216 630.022 495.216C631.196 495.216 632.252 495.152 633.19 495.024C634.15 494.896 635.025 494.693 635.814 494.416C636.625 494.139 637.382 493.787 638.086 493.36C638.812 492.912 639.526 492.368 640.23 491.728C640.444 491.536 640.668 491.387 640.902 491.28C641.137 491.152 641.382 491.088 641.638 491.088ZM660.815 462.576V475.408H677.007V482.032H660.815V495.12H681.359V502H652.175V455.728H681.359V462.576H660.815Z" fill="white"/>
<defs>
<filter id="filter0_d_1_949" x="53.6587" y="441.206" width="816.666" height="547.609" filterUnits="userSpaceOnUse" color-interpolation-filters="sRGB">
<feFlood flood-opacity="0" result="BackgroundImageFix"/>
<feColorMatrix in="SourceAlpha" type="matrix" values="0 0 0 0 0 0 0 0 0 0 0 0 0 0 0 0 0 0 127 0" result="hardAlpha"/>
<feOffset dy="6"/>
<feGaussianBlur stdDeviation="62.5"/>
<feComposite in2="hardAlpha" operator="out"/>
<feColorMatrix type="matrix" values="0 0 0 0 0 0 0 0 0 0 0 0 0 0 0 0 0 0 0.25 0"/>
<feBlend mode="normal" in2="BackgroundImageFix" result="effect1_dropShadow_1_949"/>
<feBlend mode="normal" in="SourceGraphic" in2="effect1_dropShadow_1_949" result="shape"/>
</filter>
<filter id="filter1_d_1_949" x="204.372" y="0.205811" width="517.24" height="401.513" filterUnits="userSpaceOnUse" color-interpolation-filters="sRGB">
<feFlood flood-opacity="0" result="BackgroundImageFix"/>
<feColorMatrix in="SourceAlpha" type="matrix" values="0 0 0 0 0 0 0 0 0 0 0 0 0 0 0 0 0 0 127 0" result="hardAlpha"/>
<feOffset dy="6"/>
<feGaussianBlur stdDeviation="62.5"/>
<feComposite in2="hardAlpha" operator="out"/>
<feColorMatrix type="matrix" values="0 0 0 0 0 0 0 0 0 0 0 0 0 0 0 0 0 0 0.25 0"/>
<feBlend mode="normal" in2="BackgroundImageFix" result="effect1_dropShadow_1_949"/>
<feBlend mode="normal" in="SourceGraphic" in2="effect1_dropShadow_1_949" result="shape"/>
</filter>
<linearGradient id="paint0_linear_1_949" x1="464" y1="855" x2="464" y2="127" gradientUnits="userSpaceOnUse">
<stop stop-color="#00D2FF" stop-opacity="0"/>
<stop offset="1" stop-color="#3A7BD5"/>
</linearGradient>
<linearGradient id="paint1_linear_1_949" x1="312.779" y1="556.213" x2="611.205" y2="854.639" gradientUnits="userSpaceOnUse">
<stop offset="0.9999" stop-color="#3A7BD5"/>
<stop offset="1" stop-color="#3A7BD5"/>
</linearGradient>
<linearGradient id="paint2_linear_1_949" x1="312.779" y1="556.213" x2="611.205" y2="854.639" gradientUnits="userSpaceOnUse">
<stop stop-color="#00D2FF"/>
<stop offset="1" stop-color="#3A7BD5"/>
</linearGradient>
<linearGradient id="paint3_linear_1_949" x1="388.385" y1="118.607" x2="537.598" y2="267.82" gradientUnits="userSpaceOnUse">
<stop stop-color="#00D2FF"/>
<stop offset="1" stop-color="#3A7BD5"/>
</linearGradient>
<linearGradient id="paint4_linear_1_949" x1="388.385" y1="118.607" x2="537.598" y2="267.82" gradientUnits="userSpaceOnUse">
<stop stop-color="#00D2FF"/>
<stop offset="1" stop-color="#3A7BD5"/>
</linearGradient>
</defs>
</svg>
