<svg width="837" height="1004" viewBox="0 0 837 1004" fill="none" xmlns="http://www.w3.org/2000/svg">
<path d="M372.176 129.5L494.75 192L665.25 704.733L372.176 853.5L85.5 704.733L244.25 191L372.176 129.5Z" fill="url(#paint0_linear_1_962)" fill-opacity="0.7"/>
<g filter="url(#filter0_d_1_962)">
<path d="M363.148 567.247C367.485 565.192 372.515 565.192 376.852 567.247L638.685 691.332C650.748 697.049 650.919 714.154 638.971 720.11L377.138 850.634C372.643 852.875 367.357 852.875 362.862 850.634L101.029 720.11C89.0814 714.154 89.2515 697.049 101.315 691.332L363.148 567.247Z" fill="url(#paint1_linear_1_962)"/>
<path d="M363.148 567.247C367.485 565.192 372.515 565.192 376.852 567.247L638.685 691.332C650.748 697.049 650.919 714.154 638.971 720.11L377.138 850.634C372.643 852.875 367.357 852.875 362.862 850.634L101.029 720.11C89.0814 714.154 89.2515 697.049 101.315 691.332L363.148 567.247Z" stroke="url(#paint2_linear_1_962)" stroke-width="11"/>
</g>
<g filter="url(#filter1_d_1_962)">
<path d="M364.148 125.747C368.485 123.692 373.515 123.692 377.852 125.747L490.472 179.119C502.535 184.835 502.706 201.941 490.758 207.896L378.138 264.038C373.643 266.279 368.357 266.279 363.862 264.038L251.242 207.896C239.294 201.941 239.465 184.835 251.528 179.119L364.148 125.747Z" fill="url(#paint3_linear_1_962)" shape-rendering="crispEdges"/>
<path d="M364.148 125.747C368.485 123.692 373.515 123.692 377.852 125.747L490.472 179.119C502.535 184.835 502.706 201.941 490.758 207.896L378.138 264.038C373.643 266.279 368.357 266.279 363.862 264.038L251.242 207.896C239.294 201.941 239.465 184.835 251.528 179.119L364.148 125.747Z" stroke="url(#paint4_linear_1_962)" stroke-opacity="0.5" stroke-width="10" shape-rendering="crispEdges"/>
</g>
<path d="M186.652 460.28C188.252 460.28 189.596 460.088 190.684 459.704C191.772 459.32 192.636 458.808 193.276 458.168C193.937 457.528 194.406 456.781 194.684 455.928C194.982 455.075 195.132 454.168 195.132 453.208C195.132 452.205 194.972 451.309 194.652 450.52C194.332 449.709 193.83 449.027 193.148 448.472C192.465 447.896 191.58 447.459 190.492 447.16C189.425 446.861 188.134 446.712 186.62 446.712H177.948V460.28H186.652ZM177.948 427.384V440.76H184.796C187.74 440.76 189.958 440.227 191.452 439.16C192.966 438.093 193.724 436.397 193.724 434.072C193.724 431.661 193.041 429.944 191.676 428.92C190.31 427.896 188.177 427.384 185.276 427.384H177.948ZM185.276 420.728C188.305 420.728 190.897 421.016 193.052 421.592C195.206 422.168 196.966 422.989 198.332 424.056C199.718 425.123 200.732 426.413 201.372 427.928C202.012 429.443 202.332 431.149 202.332 433.048C202.332 434.136 202.172 435.181 201.852 436.184C201.532 437.165 201.03 438.093 200.347 438.968C199.686 439.821 198.833 440.6 197.788 441.304C196.764 442.008 195.537 442.605 194.108 443.096C200.465 444.525 203.644 447.96 203.644 453.4C203.644 455.363 203.27 457.176 202.524 458.84C201.777 460.504 200.689 461.944 199.26 463.16C197.83 464.355 196.07 465.293 193.98 465.976C191.889 466.659 189.5 467 186.812 467H169.34V420.728H185.276ZM238.569 459.896V467H211.465V420.728H220.073V459.896H238.569ZM287.218 443.864C287.218 447.256 286.652 450.403 285.522 453.304C284.412 456.184 282.834 458.68 280.786 460.792C278.738 462.904 276.274 464.557 273.394 465.752C270.514 466.925 267.314 467.512 263.794 467.512C260.295 467.512 257.106 466.925 254.226 465.752C251.346 464.557 248.871 462.904 246.802 460.792C244.754 458.68 243.164 456.184 242.034 453.304C240.903 450.403 240.338 447.256 240.338 443.864C240.338 440.472 240.903 437.336 242.034 434.456C243.164 431.555 244.754 429.048 246.802 426.936C248.871 424.824 251.346 423.181 254.226 422.008C257.106 420.813 260.295 420.216 263.794 420.216C266.14 420.216 268.348 420.493 270.418 421.048C272.487 421.581 274.386 422.349 276.114 423.352C277.842 424.333 279.388 425.539 280.754 426.968C282.14 428.376 283.314 429.955 284.274 431.704C285.234 433.453 285.959 435.352 286.45 437.4C286.962 439.448 287.218 441.603 287.218 443.864ZM278.418 443.864C278.418 441.325 278.076 439.053 277.394 437.048C276.711 435.021 275.74 433.304 274.482 431.896C273.223 430.488 271.687 429.411 269.874 428.664C268.082 427.917 266.055 427.544 263.794 427.544C261.532 427.544 259.495 427.917 257.682 428.664C255.89 429.411 254.354 430.488 253.074 431.896C251.815 433.304 250.844 435.021 250.162 437.048C249.479 439.053 249.138 441.325 249.138 443.864C249.138 446.403 249.479 448.685 250.162 450.712C250.844 452.717 251.815 454.424 253.074 455.832C254.354 457.219 255.89 458.285 257.682 459.032C259.495 459.779 261.532 460.152 263.794 460.152C266.055 460.152 268.082 459.779 269.874 459.032C271.687 458.285 273.223 457.219 274.482 455.832C275.74 454.424 276.711 452.717 277.394 450.712C278.076 448.685 278.418 446.403 278.418 443.864ZM326.553 456.088C327.022 456.088 327.438 456.269 327.801 456.632L331.193 460.312C329.316 462.637 327.001 464.419 324.249 465.656C321.518 466.893 318.233 467.512 314.393 467.512C310.958 467.512 307.865 466.925 305.113 465.752C302.382 464.579 300.046 462.947 298.105 460.856C296.164 458.765 294.67 456.269 293.625 453.368C292.601 450.467 292.089 447.299 292.089 443.864C292.089 440.387 292.644 437.208 293.753 434.328C294.862 431.427 296.42 428.931 298.425 426.84C300.452 424.749 302.862 423.128 305.657 421.976C308.452 420.803 311.545 420.216 314.937 420.216C318.308 420.216 321.294 420.771 323.897 421.88C326.521 422.989 328.75 424.44 330.585 426.232L327.705 430.232C327.534 430.488 327.31 430.712 327.033 430.904C326.777 431.096 326.414 431.192 325.945 431.192C325.625 431.192 325.294 431.107 324.953 430.936C324.612 430.744 324.238 430.52 323.833 430.264C323.428 429.987 322.958 429.688 322.425 429.368C321.892 429.048 321.273 428.76 320.569 428.504C319.865 428.227 319.044 428.003 318.105 427.832C317.188 427.64 316.121 427.544 314.905 427.544C312.836 427.544 310.937 427.917 309.209 428.664C307.502 429.389 306.03 430.456 304.793 431.864C303.556 433.251 302.596 434.957 301.913 436.984C301.23 438.989 300.889 441.283 300.889 443.864C300.889 446.467 301.252 448.781 301.977 450.808C302.724 452.835 303.726 454.541 304.985 455.928C306.244 457.315 307.726 458.381 309.433 459.128C311.14 459.853 312.974 460.216 314.937 460.216C316.11 460.216 317.166 460.152 318.105 460.024C319.065 459.896 319.94 459.693 320.729 459.416C321.54 459.139 322.297 458.787 323.001 458.36C323.726 457.912 324.441 457.368 325.145 456.728C325.358 456.536 325.582 456.387 325.817 456.28C326.052 456.152 326.297 456.088 326.553 456.088ZM345.698 440.12H347.714C348.524 440.12 349.196 440.013 349.73 439.8C350.263 439.565 350.722 439.203 351.106 438.712L363.874 422.552C364.407 421.869 364.962 421.4 365.538 421.144C366.135 420.867 366.882 420.728 367.778 420.728H375.202L359.618 439.96C358.7 441.133 357.751 441.965 356.77 442.456C357.474 442.712 358.103 443.075 358.658 443.544C359.234 443.992 359.778 444.589 360.29 445.336L376.354 467H368.77C367.746 467 366.978 466.861 366.465 466.584C365.975 466.285 365.559 465.859 365.218 465.304L352.13 448.216C351.724 447.64 351.255 447.235 350.722 447C350.188 446.765 349.42 446.648 348.418 446.648H345.698V467H337.09V420.728H345.698V440.12ZM410.366 456.088C410.835 456.088 411.251 456.269 411.614 456.632L415.006 460.312C413.128 462.637 410.814 464.419 408.062 465.656C405.331 466.893 402.046 467.512 398.206 467.512C394.771 467.512 391.678 466.925 388.926 465.752C386.195 464.579 383.859 462.947 381.918 460.856C379.976 458.765 378.483 456.269 377.438 453.368C376.414 450.467 375.902 447.299 375.902 443.864C375.902 440.387 376.456 437.208 377.566 434.328C378.675 431.427 380.232 428.931 382.238 426.84C384.264 424.749 386.675 423.128 389.47 421.976C392.264 420.803 395.358 420.216 398.75 420.216C402.12 420.216 405.107 420.771 407.71 421.88C410.334 422.989 412.563 424.44 414.398 426.232L411.518 430.232C411.347 430.488 411.123 430.712 410.846 430.904C410.59 431.096 410.227 431.192 409.758 431.192C409.438 431.192 409.107 431.107 408.766 430.936C408.424 430.744 408.051 430.52 407.646 430.264C407.24 429.987 406.771 429.688 406.238 429.368C405.704 429.048 405.086 428.76 404.382 428.504C403.678 428.227 402.856 428.003 401.918 427.832C401 427.64 399.934 427.544 398.718 427.544C396.648 427.544 394.75 427.917 393.022 428.664C391.315 429.389 389.843 430.456 388.606 431.864C387.368 433.251 386.408 434.957 385.726 436.984C385.043 438.989 384.702 441.283 384.702 443.864C384.702 446.467 385.064 448.781 385.79 450.808C386.536 452.835 387.539 454.541 388.798 455.928C390.056 457.315 391.539 458.381 393.246 459.128C394.952 459.853 396.787 460.216 398.75 460.216C399.923 460.216 400.979 460.152 401.918 460.024C402.878 459.896 403.752 459.693 404.542 459.416C405.352 459.139 406.11 458.787 406.814 458.36C407.539 457.912 408.254 457.368 408.958 456.728C409.171 456.536 409.395 456.387 409.63 456.28C409.864 456.152 410.11 456.088 410.366 456.088ZM459.91 420.728V467H451.27V446.776H429.542V467H420.902V420.728H429.542V440.632H451.27V420.728H459.91ZM494.663 449.528L489.031 434.136C488.753 433.453 488.465 432.643 488.167 431.704C487.868 430.765 487.569 429.752 487.271 428.664C486.993 429.752 486.705 430.776 486.407 431.736C486.108 432.675 485.82 433.496 485.543 434.2L479.943 449.528H494.663ZM509.863 467H503.207C502.46 467 501.852 466.819 501.383 466.456C500.913 466.072 500.561 465.603 500.326 465.048L496.871 455.608H477.703L474.247 465.048C474.076 465.539 473.745 465.987 473.255 466.392C472.764 466.797 472.156 467 471.431 467H464.71L482.919 420.728H491.687L509.863 467ZM523.292 467H514.652V420.728H523.292V467ZM572.66 420.728V467H568.244C567.561 467 566.985 466.893 566.516 466.68C566.068 466.445 565.631 466.061 565.204 465.528L541.044 434.68C541.172 436.088 541.236 437.389 541.236 438.584V467H533.652V420.728H538.164C538.527 420.728 538.836 420.749 539.092 420.792C539.369 420.813 539.604 420.877 539.796 420.984C540.009 421.069 540.212 421.208 540.404 421.4C540.596 421.571 540.809 421.805 541.044 422.104L565.3 453.08C565.236 452.333 565.183 451.597 565.14 450.872C565.097 450.147 565.076 449.475 565.076 448.856V420.728H572.66Z" fill="white"/>
<defs>
<filter id="filter0_d_1_962" x="-38.333" y="441.206" width="816.666" height="547.609" filterUnits="userSpaceOnUse" color-interpolation-filters="sRGB">
<feFlood flood-opacity="0" result="BackgroundImageFix"/>
<feColorMatrix in="SourceAlpha" type="matrix" values="0 0 0 0 0 0 0 0 0 0 0 0 0 0 0 0 0 0 127 0" result="hardAlpha"/>
<feOffset dy="6"/>
<feGaussianBlur stdDeviation="62.5"/>
<feComposite in2="hardAlpha" operator="out"/>
<feColorMatrix type="matrix" values="0 0 0 0 0 0 0 0 0 0 0 0 0 0 0 0 0 0 0.25 0"/>
<feBlend mode="normal" in2="BackgroundImageFix" result="effect1_dropShadow_1_962"/>
<feBlend mode="normal" in="SourceGraphic" in2="effect1_dropShadow_1_962" result="shape"/>
</filter>
<filter id="filter1_d_1_962" x="112.38" y="0.205811" width="517.24" height="401.513" filterUnits="userSpaceOnUse" color-interpolation-filters="sRGB">
<feFlood flood-opacity="0" result="BackgroundImageFix"/>
<feColorMatrix in="SourceAlpha" type="matrix" values="0 0 0 0 0 0 0 0 0 0 0 0 0 0 0 0 0 0 127 0" result="hardAlpha"/>
<feOffset dy="6"/>
<feGaussianBlur stdDeviation="62.5"/>
<feComposite in2="hardAlpha" operator="out"/>
<feColorMatrix type="matrix" values="0 0 0 0 0 0 0 0 0 0 0 0 0 0 0 0 0 0 0.25 0"/>
<feBlend mode="normal" in2="BackgroundImageFix" result="effect1_dropShadow_1_962"/>
<feBlend mode="normal" in="SourceGraphic" in2="effect1_dropShadow_1_962" result="shape"/>
</filter>
<linearGradient id="paint0_linear_1_962" x1="372" y1="844" x2="372" y2="124" gradientUnits="userSpaceOnUse">
<stop stop-color="#BF5AE0" stop-opacity="0"/>
<stop offset="1" stop-color="#A811DA"/>
</linearGradient>
<linearGradient id="paint1_linear_1_962" x1="220.787" y1="556.213" x2="519.213" y2="854.639" gradientUnits="userSpaceOnUse">
<stop offset="1" stop-color="#A811DA"/>
</linearGradient>
<linearGradient id="paint2_linear_1_962" x1="220.787" y1="556.213" x2="519.213" y2="854.639" gradientUnits="userSpaceOnUse">
<stop stop-color="#BF5AE0"/>
<stop offset="1" stop-color="#A811DA"/>
</linearGradient>
<linearGradient id="paint3_linear_1_962" x1="296.393" y1="118.607" x2="445.607" y2="267.82" gradientUnits="userSpaceOnUse">
<stop stop-color="#BF5AE0"/>
<stop offset="1" stop-color="#A811DA"/>
</linearGradient>
<linearGradient id="paint4_linear_1_962" x1="296.393" y1="118.607" x2="445.607" y2="267.82" gradientUnits="userSpaceOnUse">
<stop stop-color="#BF5AE0"/>
<stop offset="1" stop-color="#A811DA"/>
</linearGradient>
</defs>
</svg>
