<svg width="838" height="1004" viewBox="0 0 838 1004" fill="none" xmlns="http://www.w3.org/2000/svg">
<path d="M373.168 129.5L495.742 192L666.241 704.733L373.168 853.5L86.4916 704.733L245.242 191L373.168 129.5Z" fill="url(#paint0_linear_1_952)" fill-opacity="0.7"/>
<g filter="url(#filter0_d_1_952)">
<path d="M364.14 567.247C368.476 565.192 373.507 565.192 377.844 567.247L639.677 691.332C651.74 697.049 651.91 714.154 639.963 720.11L378.13 850.634C373.635 852.875 368.348 852.875 363.853 850.634L102.02 720.11C90.073 714.154 90.2431 697.049 102.307 691.332L364.14 567.247Z" fill="url(#paint1_linear_1_952)"/>
<path d="M364.14 567.247C368.476 565.192 373.507 565.192 377.844 567.247L639.677 691.332C651.74 697.049 651.91 714.154 639.963 720.11L378.13 850.634C373.635 852.875 368.348 852.875 363.853 850.634L102.02 720.11C90.073 714.154 90.2431 697.049 102.307 691.332L364.14 567.247Z" stroke="url(#paint2_linear_1_952)" stroke-width="11"/>
</g>
<g filter="url(#filter1_d_1_952)">
<path d="M365.14 125.747C369.476 123.692 374.507 123.692 378.844 125.747L491.463 179.119C503.527 184.835 503.697 201.941 491.75 207.896L379.13 264.038C374.635 266.279 369.348 266.279 364.853 264.038L252.233 207.896C240.286 201.941 240.456 184.835 252.52 179.119L365.14 125.747Z" fill="url(#paint3_linear_1_952)" shape-rendering="crispEdges"/>
<path d="M365.14 125.747C369.476 123.692 374.507 123.692 378.844 125.747L491.463 179.119C503.527 184.835 503.697 201.941 491.75 207.896L379.13 264.038C374.635 266.279 369.348 266.279 364.853 264.038L252.233 207.896C240.286 201.941 240.456 184.835 252.52 179.119L365.14 125.747Z" stroke="url(#paint4_linear_1_952)" stroke-opacity="0.6" stroke-width="10" shape-rendering="crispEdges"/>
</g>
<path d="M180.94 432H172.3V385.728H180.94V432ZM230.308 385.728V432H225.892C225.209 432 224.633 431.893 224.164 431.68C223.716 431.445 223.279 431.061 222.852 430.528L198.692 399.68C198.82 401.088 198.884 402.389 198.884 403.584V432H191.3V385.728H195.812C196.175 385.728 196.484 385.749 196.74 385.792C197.017 385.813 197.252 385.877 197.444 385.984C197.657 386.069 197.86 386.208 198.052 386.4C198.244 386.571 198.457 386.805 198.692 387.104L222.948 418.08C222.884 417.333 222.831 416.597 222.788 415.872C222.745 415.147 222.724 414.475 222.724 413.856V385.728H230.308ZM272.932 392.8H258.98V432H250.372V392.8H236.42V385.728H272.932V392.8ZM287.627 392.576V405.408H303.819V412.032H287.627V425.12H308.171V432H278.987V385.728H308.171V392.576H287.627ZM329.784 407.744C331.405 407.744 332.813 407.541 334.008 407.136C335.224 406.731 336.216 406.176 336.984 405.472C337.773 404.747 338.36 403.893 338.744 402.912C339.128 401.931 339.32 400.853 339.32 399.68C339.32 397.333 338.541 395.531 336.984 394.272C335.448 393.013 333.091 392.384 329.912 392.384H324.408V407.744H329.784ZM351.928 432H344.152C342.68 432 341.613 431.424 340.952 430.272L331.224 415.456C330.861 414.901 330.456 414.507 330.008 414.272C329.581 414.037 328.941 413.92 328.088 413.92H324.408V432H315.8V385.728H329.912C333.048 385.728 335.736 386.059 337.976 386.72C340.237 387.36 342.083 388.267 343.512 389.44C344.963 390.613 346.029 392.021 346.712 393.664C347.395 395.285 347.736 397.077 347.736 399.04C347.736 400.597 347.501 402.069 347.032 403.456C346.584 404.843 345.923 406.101 345.048 407.232C344.195 408.363 343.128 409.355 341.848 410.208C340.589 411.061 339.149 411.733 337.528 412.224C338.083 412.544 338.595 412.928 339.064 413.376C339.533 413.803 339.96 414.315 340.344 414.912L351.928 432ZM395.933 385.728V432H391.517C390.834 432 390.258 431.893 389.789 431.68C389.341 431.445 388.904 431.061 388.477 430.528L364.317 399.68C364.445 401.088 364.509 402.389 364.509 403.584V432H356.925V385.728H361.437C361.8 385.728 362.109 385.749 362.365 385.792C362.642 385.813 362.877 385.877 363.069 385.984C363.282 386.069 363.485 386.208 363.677 386.4C363.869 386.571 364.082 386.805 364.317 387.104L388.573 418.08C388.509 417.333 388.456 416.597 388.413 415.872C388.37 415.147 388.349 414.475 388.349 413.856V385.728H395.933ZM414.877 392.576V405.408H431.069V412.032H414.877V425.12H435.421V432H406.237V385.728H435.421V392.576H414.877ZM475.37 392.8H461.418V432H452.81V392.8H438.858V385.728H475.37V392.8ZM539.178 408.864C539.178 412.256 538.613 415.403 537.482 418.304C536.373 421.184 534.794 423.68 532.746 425.792C530.698 427.904 528.234 429.557 525.354 430.752C522.474 431.925 519.274 432.512 515.754 432.512C512.255 432.512 509.066 431.925 506.186 430.752C503.306 429.557 500.831 427.904 498.762 425.792C496.714 423.68 495.125 421.184 493.994 418.304C492.863 415.403 492.298 412.256 492.298 408.864C492.298 405.472 492.863 402.336 493.994 399.456C495.125 396.555 496.714 394.048 498.762 391.936C500.831 389.824 503.306 388.181 506.186 387.008C509.066 385.813 512.255 385.216 515.754 385.216C518.101 385.216 520.309 385.493 522.378 386.048C524.447 386.581 526.346 387.349 528.074 388.352C529.802 389.333 531.349 390.539 532.714 391.968C534.101 393.376 535.274 394.955 536.234 396.704C537.194 398.453 537.919 400.352 538.41 402.4C538.922 404.448 539.178 406.603 539.178 408.864ZM530.378 408.864C530.378 406.325 530.037 404.053 529.354 402.048C528.671 400.021 527.701 398.304 526.442 396.896C525.183 395.488 523.647 394.411 521.834 393.664C520.042 392.917 518.015 392.544 515.754 392.544C513.493 392.544 511.455 392.917 509.642 393.664C507.85 394.411 506.314 395.488 505.034 396.896C503.775 398.304 502.805 400.021 502.122 402.048C501.439 404.053 501.098 406.325 501.098 408.864C501.098 411.403 501.439 413.685 502.122 415.712C502.805 417.717 503.775 419.424 505.034 420.832C506.314 422.219 507.85 423.285 509.642 424.032C511.455 424.779 513.493 425.152 515.754 425.152C518.015 425.152 520.042 424.779 521.834 424.032C523.647 423.285 525.183 422.219 526.442 420.832C527.701 419.424 528.671 417.717 529.354 415.712C530.037 413.685 530.378 411.403 530.378 408.864ZM555.377 392.576V406.272H572.721V413.152H555.377V432H546.737V385.728H575.921V392.576H555.377ZM291.182 462.8H277.23V502H268.622V462.8H254.67V455.728H291.182V462.8ZM336.245 455.728V502H327.605V481.776H305.877V502H297.237V455.728H305.877V475.632H327.605V455.728H336.245ZM355.19 502H346.55V455.728H355.19V502ZM404.558 455.728V502H400.142C399.459 502 398.883 501.893 398.414 501.68C397.966 501.445 397.529 501.061 397.102 500.528L372.942 469.68C373.07 471.088 373.134 472.389 373.134 473.584V502H365.55V455.728H370.062C370.425 455.728 370.734 455.749 370.99 455.792C371.267 455.813 371.502 455.877 371.694 455.984C371.907 456.069 372.11 456.208 372.302 456.4C372.494 456.571 372.707 456.805 372.942 457.104L397.198 488.08C397.134 487.333 397.081 486.597 397.038 485.872C396.995 485.147 396.974 484.475 396.974 483.856V455.728H404.558ZM453.006 478.8V497.52C450.66 499.248 448.153 500.517 445.486 501.328C442.841 502.117 440.004 502.512 436.974 502.512C433.198 502.512 429.774 501.925 426.702 500.752C423.652 499.579 421.038 497.947 418.862 495.856C416.708 493.765 415.044 491.269 413.87 488.368C412.697 485.467 412.11 482.299 412.11 478.864C412.11 475.387 412.676 472.197 413.806 469.296C414.937 466.395 416.537 463.899 418.606 461.808C420.697 459.717 423.225 458.096 426.19 456.944C429.156 455.792 432.484 455.216 436.174 455.216C438.052 455.216 439.801 455.365 441.422 455.664C443.065 455.963 444.58 456.379 445.966 456.912C447.374 457.424 448.654 458.053 449.806 458.8C450.958 459.547 452.014 460.368 452.974 461.264L450.51 465.168C450.126 465.787 449.625 466.171 449.006 466.32C448.388 466.448 447.716 466.288 446.99 465.84C446.286 465.435 445.582 465.029 444.878 464.624C444.174 464.219 443.385 463.867 442.51 463.568C441.657 463.269 440.686 463.024 439.598 462.832C438.532 462.64 437.294 462.544 435.886 462.544C433.604 462.544 431.534 462.928 429.678 463.696C427.844 464.464 426.276 465.563 424.974 466.992C423.673 468.421 422.67 470.139 421.966 472.144C421.262 474.149 420.91 476.389 420.91 478.864C420.91 481.509 421.284 483.877 422.03 485.968C422.798 488.037 423.865 489.797 425.23 491.248C426.617 492.677 428.281 493.776 430.222 494.544C432.164 495.291 434.329 495.664 436.718 495.664C438.425 495.664 439.95 495.483 441.294 495.12C442.638 494.757 443.95 494.267 445.23 493.648V485.264H439.406C438.852 485.264 438.414 485.115 438.094 484.816C437.796 484.496 437.646 484.112 437.646 483.664V478.8H453.006ZM485.94 464.144C485.684 464.592 485.407 464.923 485.108 465.136C484.831 465.328 484.479 465.424 484.052 465.424C483.604 465.424 483.113 465.264 482.58 464.944C482.068 464.603 481.449 464.229 480.724 463.824C479.999 463.419 479.145 463.056 478.164 462.736C477.204 462.395 476.063 462.224 474.74 462.224C473.545 462.224 472.5 462.373 471.604 462.672C470.708 462.949 469.951 463.344 469.332 463.856C468.735 464.368 468.287 464.987 467.988 465.712C467.689 466.416 467.54 467.195 467.54 468.048C467.54 469.136 467.839 470.043 468.436 470.768C469.055 471.493 469.865 472.112 470.868 472.624C471.871 473.136 473.012 473.595 474.292 474C475.572 474.405 476.884 474.843 478.228 475.312C479.572 475.76 480.884 476.293 482.164 476.912C483.444 477.509 484.585 478.277 485.588 479.216C486.591 480.133 487.391 481.264 487.988 482.608C488.607 483.952 488.916 485.584 488.916 487.504C488.916 489.595 488.553 491.557 487.828 493.392C487.124 495.205 486.079 496.795 484.692 498.16C483.327 499.504 481.652 500.571 479.668 501.36C477.684 502.128 475.412 502.512 472.852 502.512C471.38 502.512 469.929 502.363 468.5 502.064C467.071 501.787 465.695 501.381 464.372 500.848C463.071 500.315 461.844 499.675 460.692 498.928C459.54 498.181 458.516 497.349 457.62 496.432L460.148 492.304C460.361 492.005 460.639 491.76 460.98 491.568C461.321 491.355 461.684 491.248 462.068 491.248C462.601 491.248 463.177 491.472 463.796 491.92C464.415 492.347 465.151 492.827 466.004 493.36C466.857 493.893 467.849 494.384 468.98 494.832C470.132 495.259 471.508 495.472 473.108 495.472C475.561 495.472 477.46 494.896 478.804 493.744C480.148 492.571 480.82 490.896 480.82 488.72C480.82 487.504 480.511 486.512 479.892 485.744C479.295 484.976 478.495 484.336 477.492 483.824C476.489 483.291 475.348 482.843 474.068 482.48C472.788 482.117 471.487 481.723 470.164 481.296C468.841 480.869 467.54 480.357 466.26 479.76C464.98 479.163 463.839 478.384 462.836 477.424C461.833 476.464 461.023 475.269 460.404 473.84C459.807 472.389 459.508 470.608 459.508 468.496C459.508 466.811 459.839 465.168 460.5 463.568C461.183 461.968 462.164 460.549 463.444 459.312C464.724 458.075 466.303 457.083 468.18 456.336C470.057 455.589 472.212 455.216 474.644 455.216C477.375 455.216 479.892 455.643 482.196 456.496C484.5 457.349 486.463 458.544 488.084 460.08L485.94 464.144Z" fill="white"/>
<defs>
<filter id="filter0_d_1_952" x="-37.3414" y="441.206" width="816.666" height="547.609" filterUnits="userSpaceOnUse" color-interpolation-filters="sRGB">
<feFlood flood-opacity="0" result="BackgroundImageFix"/>
<feColorMatrix in="SourceAlpha" type="matrix" values="0 0 0 0 0 0 0 0 0 0 0 0 0 0 0 0 0 0 127 0" result="hardAlpha"/>
<feOffset dy="6"/>
<feGaussianBlur stdDeviation="62.5"/>
<feComposite in2="hardAlpha" operator="out"/>
<feColorMatrix type="matrix" values="0 0 0 0 0 0 0 0 0 0 0 0 0 0 0 0 0 0 0.25 0"/>
<feBlend mode="normal" in2="BackgroundImageFix" result="effect1_dropShadow_1_952"/>
<feBlend mode="normal" in="SourceGraphic" in2="effect1_dropShadow_1_952" result="shape"/>
</filter>
<filter id="filter1_d_1_952" x="113.372" y="0.205566" width="517.24" height="401.513" filterUnits="userSpaceOnUse" color-interpolation-filters="sRGB">
<feFlood flood-opacity="0" result="BackgroundImageFix"/>
<feColorMatrix in="SourceAlpha" type="matrix" values="0 0 0 0 0 0 0 0 0 0 0 0 0 0 0 0 0 0 127 0" result="hardAlpha"/>
<feOffset dy="6"/>
<feGaussianBlur stdDeviation="62.5"/>
<feComposite in2="hardAlpha" operator="out"/>
<feColorMatrix type="matrix" values="0 0 0 0 0 0 0 0 0 0 0 0 0 0 0 0 0 0 0.25 0"/>
<feBlend mode="normal" in2="BackgroundImageFix" result="effect1_dropShadow_1_952"/>
<feBlend mode="normal" in="SourceGraphic" in2="effect1_dropShadow_1_952" result="shape"/>
</filter>
<linearGradient id="paint0_linear_1_952" x1="379" y1="840" x2="379" y2="125" gradientUnits="userSpaceOnUse">
<stop stop-color="#00F5A0" stop-opacity="0"/>
<stop offset="1" stop-color="#00D9F5"/>
</linearGradient>
<linearGradient id="paint1_linear_1_952" x1="221.778" y1="556.213" x2="520.205" y2="854.639" gradientUnits="userSpaceOnUse">
<stop offset="1" stop-color="#00D9F5"/>
</linearGradient>
<linearGradient id="paint2_linear_1_952" x1="221.778" y1="556.213" x2="520.205" y2="854.639" gradientUnits="userSpaceOnUse">
<stop stop-color="#00F5A0"/>
<stop offset="1" stop-color="#00D9F5"/>
</linearGradient>
<linearGradient id="paint3_linear_1_952" x1="297.385" y1="118.607" x2="446.598" y2="267.82" gradientUnits="userSpaceOnUse">
<stop stop-color="#00F5A0"/>
<stop offset="1" stop-color="#00D9F5"/>
</linearGradient>
<linearGradient id="paint4_linear_1_952" x1="297.385" y1="118.607" x2="446.598" y2="267.82" gradientUnits="userSpaceOnUse">
<stop stop-color="#00F5A0"/>
<stop offset="1" stop-color="#00D9F5"/>
</linearGradient>
</defs>
</svg>
