<svg width="857" height="1004" viewBox="0 0 857 1004" fill="none" xmlns="http://www.w3.org/2000/svg">
<path d="M464.168 129.5L586.742 192L757.241 704.733L464.168 853.5L177.492 704.733L336.242 191L464.168 129.5Z" fill="url(#paint0_linear_1_976)" fill-opacity="0.7"/>
<g filter="url(#filter0_d_1_976)">
<path d="M455.14 567.247C459.476 565.192 464.507 565.192 468.844 567.247L730.677 691.332C742.74 697.049 742.91 714.154 730.963 720.11L469.13 850.634C464.635 852.875 459.348 852.875 454.853 850.634L193.02 720.11C181.073 714.154 181.243 697.049 193.307 691.332L455.14 567.247Z" fill="url(#paint1_linear_1_976)"/>
<path d="M455.14 567.247C459.476 565.192 464.507 565.192 468.844 567.247L730.677 691.332C742.74 697.049 742.91 714.154 730.963 720.11L469.13 850.634C464.635 852.875 459.348 852.875 454.853 850.634L193.02 720.11C181.073 714.154 181.243 697.049 193.307 691.332L455.14 567.247Z" stroke="url(#paint2_linear_1_976)" stroke-width="11"/>
</g>
<g filter="url(#filter1_d_1_976)">
<path d="M456.14 125.747C460.477 123.692 465.507 123.692 469.844 125.747L582.464 179.119C594.527 184.835 594.697 201.941 582.75 207.896L470.13 264.038C465.635 266.279 460.348 266.279 455.853 264.038L343.234 207.896C331.286 201.941 331.456 184.835 343.52 179.119L456.14 125.747Z" fill="url(#paint3_linear_1_976)" shape-rendering="crispEdges"/>
<path d="M456.14 125.747C460.477 123.692 465.507 123.692 469.844 125.747L582.464 179.119C594.527 184.835 594.697 201.941 582.75 207.896L470.13 264.038C465.635 266.279 460.348 266.279 455.853 264.038L343.234 207.896C331.286 201.941 331.456 184.835 343.52 179.119L456.14 125.747Z" stroke="url(#paint4_linear_1_976)" stroke-opacity="0.5" stroke-width="10" shape-rendering="crispEdges"/>
</g>
<path d="M267.295 421.088C267.764 421.088 268.18 421.269 268.543 421.632L271.935 425.312C270.057 427.637 267.743 429.419 264.991 430.656C262.26 431.893 258.975 432.512 255.135 432.512C251.7 432.512 248.607 431.925 245.855 430.752C243.124 429.579 240.788 427.947 238.847 425.856C236.905 423.765 235.412 421.269 234.367 418.368C233.343 415.467 232.831 412.299 232.831 408.864C232.831 405.387 233.385 402.208 234.495 399.328C235.604 396.427 237.161 393.931 239.167 391.84C241.193 389.749 243.604 388.128 246.399 386.976C249.193 385.803 252.287 385.216 255.679 385.216C259.049 385.216 262.036 385.771 264.639 386.88C267.263 387.989 269.492 389.44 271.327 391.232L268.447 395.232C268.276 395.488 268.052 395.712 267.775 395.904C267.519 396.096 267.156 396.192 266.687 396.192C266.367 396.192 266.036 396.107 265.695 395.936C265.353 395.744 264.98 395.52 264.575 395.264C264.169 394.987 263.7 394.688 263.167 394.368C262.633 394.048 262.015 393.76 261.311 393.504C260.607 393.227 259.785 393.003 258.847 392.832C257.929 392.64 256.863 392.544 255.647 392.544C253.577 392.544 251.679 392.917 249.951 393.664C248.244 394.389 246.772 395.456 245.535 396.864C244.297 398.251 243.337 399.957 242.655 401.984C241.972 403.989 241.631 406.283 241.631 408.864C241.631 411.467 241.993 413.781 242.719 415.808C243.465 417.835 244.468 419.541 245.727 420.928C246.985 422.315 248.468 423.381 250.175 424.128C251.881 424.853 253.716 425.216 255.679 425.216C256.852 425.216 257.908 425.152 258.847 425.024C259.807 424.896 260.681 424.693 261.471 424.416C262.281 424.139 263.039 423.787 263.743 423.36C264.468 422.912 265.183 422.368 265.887 421.728C266.1 421.536 266.324 421.387 266.559 421.28C266.793 421.152 267.039 421.088 267.295 421.088ZM304.935 424.896V432H277.831V385.728H286.439V424.896H304.935ZM353.584 408.864C353.584 412.256 353.019 415.403 351.888 418.304C350.779 421.184 349.2 423.68 347.152 425.792C345.104 427.904 342.64 429.557 339.76 430.752C336.88 431.925 333.68 432.512 330.16 432.512C326.662 432.512 323.472 431.925 320.592 430.752C317.712 429.557 315.238 427.904 313.168 425.792C311.12 423.68 309.531 421.184 308.4 418.304C307.27 415.403 306.704 412.256 306.704 408.864C306.704 405.472 307.27 402.336 308.4 399.456C309.531 396.555 311.12 394.048 313.168 391.936C315.238 389.824 317.712 388.181 320.592 387.008C323.472 385.813 326.662 385.216 330.16 385.216C332.507 385.216 334.715 385.493 336.784 386.048C338.854 386.581 340.752 387.349 342.48 388.352C344.208 389.333 345.755 390.539 347.12 391.968C348.507 393.376 349.68 394.955 350.64 396.704C351.6 398.453 352.326 400.352 352.816 402.4C353.328 404.448 353.584 406.603 353.584 408.864ZM344.784 408.864C344.784 406.325 344.443 404.053 343.76 402.048C343.078 400.021 342.107 398.304 340.848 396.896C339.59 395.488 338.054 394.411 336.24 393.664C334.448 392.917 332.422 392.544 330.16 392.544C327.899 392.544 325.862 392.917 324.048 393.664C322.256 394.411 320.72 395.488 319.44 396.896C318.182 398.304 317.211 400.021 316.528 402.048C315.846 404.053 315.504 406.325 315.504 408.864C315.504 411.403 315.846 413.685 316.528 415.712C317.211 417.717 318.182 419.424 319.44 420.832C320.72 422.219 322.256 423.285 324.048 424.032C325.862 424.779 327.899 425.152 330.16 425.152C332.422 425.152 334.448 424.779 336.24 424.032C338.054 423.285 339.59 422.219 340.848 420.832C342.107 419.424 343.078 417.717 343.76 415.712C344.443 413.685 344.784 411.403 344.784 408.864ZM379.768 425.056C381.432 425.056 382.914 424.779 384.216 424.224C385.538 423.669 386.648 422.891 387.544 421.888C388.44 420.885 389.122 419.669 389.592 418.24C390.082 416.811 390.328 415.211 390.328 413.44V385.728H398.936V413.44C398.936 416.192 398.488 418.741 397.592 421.088C396.717 423.413 395.448 425.429 393.784 427.136C392.141 428.821 390.136 430.144 387.768 431.104C385.4 432.043 382.733 432.512 379.768 432.512C376.781 432.512 374.104 432.043 371.736 431.104C369.368 430.144 367.352 428.821 365.688 427.136C364.045 425.429 362.776 423.413 361.88 421.088C361.005 418.741 360.568 416.192 360.568 413.44V385.728H369.176V413.408C369.176 415.179 369.41 416.779 369.88 418.208C370.37 419.637 371.064 420.864 371.96 421.888C372.877 422.891 373.986 423.669 375.288 424.224C376.61 424.779 378.104 425.056 379.768 425.056ZM449.732 408.864C449.732 412.256 449.166 415.371 448.036 418.208C446.905 421.045 445.316 423.488 443.268 425.536C441.22 427.584 438.756 429.173 435.876 430.304C432.996 431.435 429.796 432 426.276 432H408.644V385.728H426.276C429.796 385.728 432.996 386.304 435.876 387.456C438.756 388.587 441.22 390.176 443.268 392.224C445.316 394.251 446.905 396.683 448.036 399.52C449.166 402.357 449.732 405.472 449.732 408.864ZM440.9 408.864C440.9 406.325 440.558 404.053 439.876 402.048C439.214 400.021 438.244 398.315 436.964 396.928C435.705 395.52 434.169 394.443 432.356 393.696C430.564 392.949 428.537 392.576 426.276 392.576H417.284V425.152H426.276C428.537 425.152 430.564 424.779 432.356 424.032C434.169 423.285 435.705 422.219 436.964 420.832C438.244 419.424 439.214 417.717 439.876 415.712C440.558 413.685 440.9 411.403 440.9 408.864ZM511.902 385.728V432H507.486C506.803 432 506.227 431.893 505.758 431.68C505.31 431.445 504.872 431.061 504.446 430.528L480.286 399.68C480.414 401.088 480.478 402.389 480.478 403.584V432H472.894V385.728H477.406C477.768 385.728 478.078 385.749 478.334 385.792C478.611 385.813 478.846 385.877 479.038 385.984C479.251 386.069 479.454 386.208 479.646 386.4C479.838 386.571 480.051 386.805 480.286 387.104L504.542 418.08C504.478 417.333 504.424 416.597 504.382 415.872C504.339 415.147 504.318 414.475 504.318 413.856V385.728H511.902ZM546.654 414.528L541.022 399.136C540.745 398.453 540.457 397.643 540.158 396.704C539.86 395.765 539.561 394.752 539.262 393.664C538.985 394.752 538.697 395.776 538.398 396.736C538.1 397.675 537.812 398.496 537.534 399.2L531.934 414.528H546.654ZM561.854 432H555.198C554.452 432 553.844 431.819 553.374 431.456C552.905 431.072 552.553 430.603 552.318 430.048L548.862 420.608H529.694L526.238 430.048C526.068 430.539 525.737 430.987 525.246 431.392C524.756 431.797 524.148 432 523.422 432H516.702L534.91 385.728H543.678L561.854 432ZM594.464 392.8H580.512V432H571.904V392.8H557.952V385.728H594.464V392.8ZM609.159 432H600.519V385.728H609.159V432ZM659.167 385.728L640.479 432H632.703L614.015 385.728H620.927C621.673 385.728 622.281 385.909 622.751 386.272C623.22 386.635 623.572 387.104 623.807 387.68L634.719 415.904C635.081 416.821 635.423 417.835 635.743 418.944C636.084 420.032 636.404 421.173 636.703 422.368C636.959 421.173 637.236 420.032 637.535 418.944C637.833 417.835 638.164 416.821 638.527 415.904L649.375 387.68C649.545 387.189 649.876 386.741 650.367 386.336C650.879 385.931 651.497 385.728 652.223 385.728H659.167ZM672.596 392.576V405.408H688.788V412.032H672.596V425.12H693.14V432H663.956V385.728H693.14V392.576H672.596ZM303.045 491.088C303.514 491.088 303.93 491.269 304.293 491.632L307.685 495.312C305.807 497.637 303.493 499.419 300.741 500.656C298.01 501.893 294.725 502.512 290.885 502.512C287.45 502.512 284.357 501.925 281.605 500.752C278.874 499.579 276.538 497.947 274.597 495.856C272.655 493.765 271.162 491.269 270.117 488.368C269.093 485.467 268.581 482.299 268.581 478.864C268.581 475.387 269.135 472.208 270.245 469.328C271.354 466.427 272.911 463.931 274.917 461.84C276.943 459.749 279.354 458.128 282.149 456.976C284.943 455.803 288.037 455.216 291.429 455.216C294.799 455.216 297.786 455.771 300.389 456.88C303.013 457.989 305.242 459.44 307.077 461.232L304.197 465.232C304.026 465.488 303.802 465.712 303.525 465.904C303.269 466.096 302.906 466.192 302.437 466.192C302.117 466.192 301.786 466.107 301.445 465.936C301.103 465.744 300.73 465.52 300.325 465.264C299.919 464.987 299.45 464.688 298.917 464.368C298.383 464.048 297.765 463.76 297.061 463.504C296.357 463.227 295.535 463.003 294.597 462.832C293.679 462.64 292.613 462.544 291.397 462.544C289.327 462.544 287.429 462.917 285.701 463.664C283.994 464.389 282.522 465.456 281.285 466.864C280.047 468.251 279.087 469.957 278.405 471.984C277.722 473.989 277.381 476.283 277.381 478.864C277.381 481.467 277.743 483.781 278.469 485.808C279.215 487.835 280.218 489.541 281.477 490.928C282.735 492.315 284.218 493.381 285.925 494.128C287.631 494.853 289.466 495.216 291.429 495.216C292.602 495.216 293.658 495.152 294.597 495.024C295.557 494.896 296.431 494.693 297.221 494.416C298.031 494.139 298.789 493.787 299.493 493.36C300.218 492.912 300.933 492.368 301.637 491.728C301.85 491.536 302.074 491.387 302.309 491.28C302.543 491.152 302.789 491.088 303.045 491.088ZM356.709 478.864C356.709 482.256 356.144 485.403 355.013 488.304C353.904 491.184 352.325 493.68 350.277 495.792C348.229 497.904 345.765 499.557 342.885 500.752C340.005 501.925 336.805 502.512 333.285 502.512C329.787 502.512 326.597 501.925 323.717 500.752C320.837 499.557 318.363 497.904 316.293 495.792C314.245 493.68 312.656 491.184 311.525 488.304C310.395 485.403 309.829 482.256 309.829 478.864C309.829 475.472 310.395 472.336 311.525 469.456C312.656 466.555 314.245 464.048 316.293 461.936C318.363 459.824 320.837 458.181 323.717 457.008C326.597 455.813 329.787 455.216 333.285 455.216C335.632 455.216 337.84 455.493 339.909 456.048C341.979 456.581 343.877 457.349 345.605 458.352C347.333 459.333 348.88 460.539 350.245 461.968C351.632 463.376 352.805 464.955 353.765 466.704C354.725 468.453 355.451 470.352 355.941 472.4C356.453 474.448 356.709 476.603 356.709 478.864ZM347.909 478.864C347.909 476.325 347.568 474.053 346.885 472.048C346.203 470.021 345.232 468.304 343.973 466.896C342.715 465.488 341.179 464.411 339.365 463.664C337.573 462.917 335.547 462.544 333.285 462.544C331.024 462.544 328.987 462.917 327.173 463.664C325.381 464.411 323.845 465.488 322.565 466.896C321.307 468.304 320.336 470.021 319.653 472.048C318.971 474.053 318.629 476.325 318.629 478.864C318.629 481.403 318.971 483.685 319.653 485.712C320.336 487.717 321.307 489.424 322.565 490.832C323.845 492.219 325.381 493.285 327.173 494.032C328.987 494.779 331.024 495.152 333.285 495.152C335.547 495.152 337.573 494.779 339.365 494.032C341.179 493.285 342.715 492.219 343.973 490.832C345.232 489.424 346.203 487.717 346.885 485.712C347.568 483.685 347.909 481.403 347.909 478.864ZM414.445 455.728V502H406.861V472.112C406.861 470.917 406.925 469.627 407.053 468.24L393.069 494.512C392.407 495.771 391.394 496.4 390.029 496.4H388.813C387.447 496.4 386.434 495.771 385.773 494.512L371.629 468.144C371.693 468.848 371.746 469.541 371.789 470.224C371.831 470.907 371.853 471.536 371.853 472.112V502H364.269V455.728H370.765C371.149 455.728 371.479 455.739 371.757 455.76C372.034 455.781 372.279 455.835 372.493 455.92C372.727 456.005 372.93 456.144 373.101 456.336C373.293 456.528 373.474 456.784 373.645 457.104L387.501 482.8C387.863 483.483 388.194 484.187 388.493 484.912C388.813 485.637 389.122 486.384 389.421 487.152C389.719 486.363 390.029 485.605 390.349 484.88C390.669 484.133 391.01 483.419 391.373 482.736L405.037 457.104C405.207 456.784 405.389 456.528 405.581 456.336C405.773 456.144 405.975 456.005 406.189 455.92C406.423 455.835 406.679 455.781 406.957 455.76C407.234 455.739 407.565 455.728 407.949 455.728H414.445ZM439.809 478.992C441.387 478.992 442.763 478.8 443.937 478.416C445.11 478.011 446.081 477.445 446.849 476.72C447.638 475.973 448.225 475.077 448.609 474.032C448.993 472.965 449.185 471.781 449.185 470.48C449.185 469.243 448.993 468.123 448.609 467.12C448.225 466.117 447.649 465.264 446.881 464.56C446.113 463.856 445.142 463.323 443.969 462.96C442.795 462.576 441.409 462.384 439.809 462.384H433.377V478.992H439.809ZM439.809 455.728C442.902 455.728 445.579 456.091 447.841 456.816C450.102 457.541 451.969 458.555 453.441 459.856C454.913 461.157 456.001 462.715 456.705 464.528C457.43 466.341 457.793 468.325 457.793 470.48C457.793 472.72 457.419 474.779 456.673 476.656C455.926 478.512 454.806 480.112 453.313 481.456C451.819 482.8 449.942 483.845 447.681 484.592C445.441 485.339 442.817 485.712 439.809 485.712H433.377V502H424.769V455.728H439.809ZM483.018 495.056C484.682 495.056 486.164 494.779 487.466 494.224C488.788 493.669 489.898 492.891 490.794 491.888C491.69 490.885 492.372 489.669 492.842 488.24C493.332 486.811 493.578 485.211 493.578 483.44V455.728H502.186V483.44C502.186 486.192 501.738 488.741 500.842 491.088C499.967 493.413 498.698 495.429 497.034 497.136C495.391 498.821 493.386 500.144 491.018 501.104C488.65 502.043 485.983 502.512 483.018 502.512C480.031 502.512 477.354 502.043 474.986 501.104C472.618 500.144 470.602 498.821 468.938 497.136C467.295 495.429 466.026 493.413 465.13 491.088C464.255 488.741 463.818 486.192 463.818 483.44V455.728H472.426V483.408C472.426 485.179 472.66 486.779 473.13 488.208C473.62 489.637 474.314 490.864 475.21 491.888C476.127 492.891 477.236 493.669 478.538 494.224C479.86 494.779 481.354 495.056 483.018 495.056ZM544.214 462.8H530.262V502H521.654V462.8H507.702V455.728H544.214V462.8ZM558.909 502H550.269V455.728H558.909V502ZM608.277 455.728V502H603.861C603.178 502 602.602 501.893 602.133 501.68C601.685 501.445 601.247 501.061 600.821 500.528L576.661 469.68C576.789 471.088 576.853 472.389 576.853 473.584V502H569.269V455.728H573.781C574.143 455.728 574.453 455.749 574.709 455.792C574.986 455.813 575.221 455.877 575.413 455.984C575.626 456.069 575.829 456.208 576.021 456.4C576.213 456.571 576.426 456.805 576.661 457.104L600.917 488.08C600.853 487.333 600.799 486.597 600.757 485.872C600.714 485.147 600.693 484.475 600.693 483.856V455.728H608.277ZM656.725 478.8V497.52C654.379 499.248 651.872 500.517 649.205 501.328C646.56 502.117 643.723 502.512 640.693 502.512C636.917 502.512 633.493 501.925 630.421 500.752C627.371 499.579 624.757 497.947 622.581 495.856C620.427 493.765 618.763 491.269 617.589 488.368C616.416 485.467 615.829 482.299 615.829 478.864C615.829 475.387 616.395 472.197 617.525 469.296C618.656 466.395 620.256 463.899 622.325 461.808C624.416 459.717 626.944 458.096 629.909 456.944C632.875 455.792 636.203 455.216 639.893 455.216C641.771 455.216 643.52 455.365 645.141 455.664C646.784 455.963 648.299 456.379 649.685 456.912C651.093 457.424 652.373 458.053 653.525 458.8C654.677 459.547 655.733 460.368 656.693 461.264L654.229 465.168C653.845 465.787 653.344 466.171 652.725 466.32C652.107 466.448 651.435 466.288 650.709 465.84C650.005 465.435 649.301 465.029 648.597 464.624C647.893 464.219 647.104 463.867 646.229 463.568C645.376 463.269 644.405 463.024 643.317 462.832C642.251 462.64 641.013 462.544 639.605 462.544C637.323 462.544 635.253 462.928 633.397 463.696C631.563 464.464 629.995 465.563 628.693 466.992C627.392 468.421 626.389 470.139 625.685 472.144C624.981 474.149 624.629 476.389 624.629 478.864C624.629 481.509 625.003 483.877 625.749 485.968C626.517 488.037 627.584 489.797 628.949 491.248C630.336 492.677 632 493.776 633.941 494.544C635.883 495.291 638.048 495.664 640.437 495.664C642.144 495.664 643.669 495.483 645.013 495.12C646.357 494.757 647.669 494.267 648.949 493.648V485.264H643.125C642.571 485.264 642.133 485.115 641.813 484.816C641.515 484.496 641.365 484.112 641.365 483.664V478.8H656.725Z" fill="white"/>
<defs>
<filter id="filter0_d_1_976" x="53.6587" y="441.206" width="816.666" height="547.609" filterUnits="userSpaceOnUse" color-interpolation-filters="sRGB">
<feFlood flood-opacity="0" result="BackgroundImageFix"/>
<feColorMatrix in="SourceAlpha" type="matrix" values="0 0 0 0 0 0 0 0 0 0 0 0 0 0 0 0 0 0 127 0" result="hardAlpha"/>
<feOffset dy="6"/>
<feGaussianBlur stdDeviation="62.5"/>
<feComposite in2="hardAlpha" operator="out"/>
<feColorMatrix type="matrix" values="0 0 0 0 0 0 0 0 0 0 0 0 0 0 0 0 0 0 0.25 0"/>
<feBlend mode="normal" in2="BackgroundImageFix" result="effect1_dropShadow_1_976"/>
<feBlend mode="normal" in="SourceGraphic" in2="effect1_dropShadow_1_976" result="shape"/>
</filter>
<filter id="filter1_d_1_976" x="204.372" y="0.205811" width="517.24" height="401.513" filterUnits="userSpaceOnUse" color-interpolation-filters="sRGB">
<feFlood flood-opacity="0" result="BackgroundImageFix"/>
<feColorMatrix in="SourceAlpha" type="matrix" values="0 0 0 0 0 0 0 0 0 0 0 0 0 0 0 0 0 0 127 0" result="hardAlpha"/>
<feOffset dy="6"/>
<feGaussianBlur stdDeviation="62.5"/>
<feComposite in2="hardAlpha" operator="out"/>
<feColorMatrix type="matrix" values="0 0 0 0 0 0 0 0 0 0 0 0 0 0 0 0 0 0 0.25 0"/>
<feBlend mode="normal" in2="BackgroundImageFix" result="effect1_dropShadow_1_976"/>
<feBlend mode="normal" in="SourceGraphic" in2="effect1_dropShadow_1_976" result="shape"/>
</filter>
<linearGradient id="paint0_linear_1_976" x1="464" y1="111.5" x2="464" y2="851.5" gradientUnits="userSpaceOnUse">
<stop stop-color="#FF8008"/>
<stop offset="1" stop-color="#FFC837" stop-opacity="0"/>
</linearGradient>
<linearGradient id="paint1_linear_1_976" x1="312.779" y1="556.213" x2="611.205" y2="854.639" gradientUnits="userSpaceOnUse">
<stop stop-color="#FF8008"/>
</linearGradient>
<linearGradient id="paint2_linear_1_976" x1="312.779" y1="556.213" x2="611.205" y2="854.639" gradientUnits="userSpaceOnUse">
<stop stop-color="#FFC837"/>
<stop offset="1" stop-color="#FF8008"/>
</linearGradient>
<linearGradient id="paint3_linear_1_976" x1="388.385" y1="118.607" x2="537.598" y2="267.82" gradientUnits="userSpaceOnUse">
<stop stop-color="#FF8008"/>
<stop offset="1" stop-color="#FFC837"/>
</linearGradient>
<linearGradient id="paint4_linear_1_976" x1="388.385" y1="118.607" x2="537.598" y2="267.82" gradientUnits="userSpaceOnUse">
<stop stop-color="#FF8008"/>
<stop offset="1" stop-color="#FFC837"/>
</linearGradient>
</defs>
</svg>
